# xmcd
#
# Track frame offsets:
#	150
#	26022
#	45460
#	62697
#	78112
#	100302
#
# Disc length: 1521 seconds
#
# Revision: 1
# Processed by: cddbd v1.5.1PL0 Copyright (c) Steve Scherf et al.
# Submitted via: CDex 1.50Beta5
#
DISCID=3f05ef06
DTITLE=Metorobo - Neo
DYEAR=1900
DGENRE=Pop
TTITLE0=Starion
TTITLE1=Neo
TTITLE2=＋
TTITLE3=Crater
TTITLE4=Redo
TTITLE5=Harmony♪
EXTD=
EXTT0=
EXTT1=
EXTT2=
EXTT3=
EXTT4=
EXTT5=
PLAYORDER=
